Coordinates
version=1
nRows=60
nColumns=12
inDegrees=yes

Units are S.I. units (second, meters, Newtons, ...)
Angles are in degrees

endheader
time	SC_y	SC_z	SC_x	AC_y	AC_z	AC_x	GH_y	GH_z	GH_yy	EL_x	PS_y
       0.0              -51.11          1.496          5.507           56.2         -5.673         -8.013          105.0          49.11         -170.3          49.71          157.3
   0.02287              -51.11          1.496          5.518           56.2         -5.673         -8.014          105.0          49.11         -170.3          49.71          157.3
   0.04574              -51.11          1.495          5.529           56.2         -5.673         -8.016          105.0           49.1         -170.2          49.71          157.3
    0.0686              -51.11          1.495          5.541           56.2         -5.674         -8.017          105.0           49.1         -170.2          49.71          157.2
   0.09147              -51.11          1.494          5.554           56.2         -5.674         -8.019          104.9           49.1         -170.1           49.7          157.2
    0.1143              -51.11          1.494          5.568           56.2         -5.675         -8.021          104.9          49.09         -170.1           49.7          157.2
    0.1372              -51.12          1.493          5.582           56.2         -5.675         -8.023          104.9          49.09         -170.0           49.7          157.2
    0.1601              -51.12          1.492          5.598           56.2         -5.676         -8.026          104.9          49.08         -170.0           49.7          157.2
    0.1829              -51.12          1.491          5.614           56.2         -5.676         -8.028          104.8          49.08         -169.9           49.7          157.2
    0.2058              -51.12          1.491          5.632           56.2         -5.677         -8.031          104.8          49.07         -169.9          49.69          157.1
    0.2287              -51.12           1.49          5.651           56.2         -5.678         -8.033          104.8          49.06         -169.8          49.69          157.1
    0.2515              -51.12          1.489          5.672          56.21         -5.678         -8.036          104.8          49.06         -169.7          49.69          157.1
    0.2744              -51.12          1.488          5.694          56.21         -5.679          -8.04          104.7          49.05         -169.7          49.69          157.1
    0.2973              -51.13          1.487          5.718          56.21          -5.68         -8.043          104.7          49.04         -169.6          49.68          157.0
    0.3202              -51.13          1.486          5.744          56.21         -5.681         -8.047          104.6          49.04         -169.5          49.68          157.0
     0.343              -51.13          1.484          5.773          56.21         -5.682         -8.051          104.6          49.03         -169.4          49.68          157.0
    0.3659              -51.13          1.483          5.803          56.21         -5.683         -8.055          104.5          49.02         -169.3          49.67          156.9
    0.3888              -51.13          1.482          5.837          56.21         -5.684          -8.06          104.5          49.01         -169.2          49.67          156.9
    0.4116              -51.14           1.48          5.873          56.21         -5.686         -8.065          104.4          48.99         -169.0          49.66          156.9
    0.4345              -51.14          1.478          5.913          56.22         -5.687         -8.071          104.4          48.98         -168.9          49.66          156.8
    0.4574              -51.14          1.476          5.957          56.22         -5.689         -8.078          104.3          48.97         -168.8          49.65          156.8
    0.4802              -51.14          1.474          6.005          56.22          -5.69         -8.085          104.2          48.95         -168.6          49.65          156.7
    0.5031              -51.15          1.472          6.059          56.22         -5.692         -8.092          104.1          48.93         -168.4          49.64          156.7
     0.526              -51.15          1.469          6.118          56.22         -5.694         -8.101          104.0          48.92         -168.2          49.63          156.6
    0.5488              -51.16          1.466          6.183          56.23         -5.697          -8.11          103.9           48.9         -168.0          49.62          156.5
    0.5717              -51.16          1.463          6.257          56.23         -5.699         -8.121          103.8          48.87         -167.7          49.61          156.4
    0.5946              -51.17          1.459          6.339          56.23         -5.702         -8.133          103.7          48.85         -167.4           49.6          156.4
    0.6174              -51.17          1.455          6.431          56.24         -5.706         -8.146          103.5          48.82         -167.1          49.59          156.3
    0.6403              -51.18           1.45          6.535          56.24         -5.709         -8.161          103.3          48.78         -166.8          49.58          156.1
    0.6632              -51.19          1.445          6.654          56.25         -5.713         -8.178          103.1          48.74         -166.4          49.56          156.0
     0.686               -51.2          1.439          6.789          56.25         -5.718         -8.198          102.9           48.7         -165.9          49.55          155.9
    0.7089              -51.21          1.432          6.944          56.26         -5.724          -8.22          102.7          48.65         -165.4          49.53          155.7
    0.7318              -51.22          1.424          7.123          56.26          -5.73         -8.246          102.4           48.6         -164.8           49.5          155.5
    0.7546              -51.24          1.415          7.332          56.27         -5.738         -8.276          102.0          48.53         -164.0          49.48          155.3
    0.7775              -51.25          1.404          7.575          56.28         -5.746         -8.312          101.6          48.45         -163.2          49.45          155.0
    0.8004              -51.27          1.391          7.862          56.29         -5.757         -8.353          101.2          48.36         -162.2          49.41          154.7
    0.8233              -51.29          1.376          8.204          56.31         -5.769         -8.402          100.6          48.25         -161.1          49.37          154.3
    0.8461              -51.32          1.358          8.613          56.33         -5.783         -8.462          99.94          48.12         -159.7          49.31          153.8
     0.869              -51.36          1.335          9.107          56.35         -5.801         -8.533          99.13          47.96         -158.0          49.25          153.3
    0.8919               -51.4          1.308          9.712          56.37         -5.823         -8.621          98.15          47.77         -155.9          49.17          152.6
    0.9147              -51.45          1.275          10.46           56.4         -5.849         -8.728          96.93          47.53         -153.3          49.08          151.8
    0.9376              -51.51          1.234          11.39          56.44         -5.883         -8.863           95.4          47.23         -150.1          48.96          150.8
    0.9605              -51.59          1.181          12.56          56.49         -5.925         -9.032          93.49          46.86         -146.1          48.81          149.5
    0.9833              -51.69          1.115          14.05          56.55         -5.978         -9.248          91.05          46.38         -141.0          48.62          147.8
     1.006              -51.82          1.029          15.96          56.63         -6.046         -9.524          87.93          45.78         -134.5          48.37          145.7
     1.029              -51.99         0.9202           18.4          56.73         -6.133         -9.877          83.93           45.0         -126.1          48.06          143.0
     1.052               -52.2         0.7806          21.53          56.86         -6.245         -10.33          78.81           44.0         -115.4          47.66          139.5
     1.075              -52.47          0.605          25.46          57.02         -6.386          -10.9          72.39          42.74         -101.9          47.16          135.2
     1.098               -52.8         0.3911          30.25          57.21         -6.557         -11.59          64.55          41.22         -85.54          46.55          129.9
     1.121              -53.18         0.1431           35.8          57.44         -6.755         -12.39          55.47          39.44         -66.52          45.84          123.7
     1.143              -53.58        -0.1254          41.81          57.69          -6.97         -13.26          45.64          37.53         -45.93          45.07          117.1
     1.166              -53.99        -0.3939          47.83          57.93         -7.185         -14.13           35.8          35.61         -25.34           44.3          110.4
     1.189              -54.37        -0.6418          53.38          58.16         -7.383         -14.93          26.72          33.84         -6.322          43.59          104.3
     1.212               -54.7        -0.8558          58.17          58.36         -7.555         -15.63          18.89          32.31          10.08          42.98          98.97
     1.235              -54.97         -1.031           62.1          58.52         -7.695          -16.2          12.46          31.05          23.55          42.47          94.62
     1.258              -55.18         -1.171          65.23          58.65         -7.807         -16.65          7.346          30.06          34.26          42.07          91.16
     1.281              -55.35          -1.28          67.67          58.75         -7.894          -17.0          3.343          29.28          42.64          41.76          88.45
     1.303              -55.48         -1.365          69.58          58.83         -7.962         -17.28         0.2236          28.67          49.17          41.52          86.34
     1.326              -55.58         -1.432          71.07          58.89         -8.016         -17.49         -2.213          28.19          54.27          41.33          84.69
     1.349              -55.66         -1.484          72.24          58.94         -8.057         -17.66          -4.13          27.82          58.29          41.18          83.39
